<?xml version="1.0" encoding="iso-8859-1"?>
<!-- Generator: Adobe Illustrator 19.0.0, SVG Export Plug-In . SVG Version: 6.00 Build 0)  -->
<svg version="1.1" id="Capa_1" xmlns="http://www.w3.org/2000/svg" xmlns:xlink="http://www.w3.org/1999/xlink" x="0px" y="0px"
	 viewBox="0 0 512 512" style="enable-background:new 0 0 512 512;" xml:space="preserve">
<g>
	<g>
		<g>
			<path d="M0,0v512h512V0H0z M480,480H32V160h448V480z M480,128H32V32h448V128z"/>
			<rect x="64" y="64" width="32" height="32"/>
			<rect x="128" y="64" width="32" height="32"/>
			<rect x="192" y="64" width="256" height="32"/>
			<path d="M128,400h32v-32h32v-32h-32v-96h-41.056L64,331.568V368h64V400z M98.656,336L128,287.104V336H98.656z"/>
			<path d="M384,400h32v-32h32v-32h-32v-96h-41.056L320,331.568V368h64V400z M354.656,336L384,287.104V336H354.656z"/>
			<path d="M304,240h-96v160h96V240z M272,368h-32v-96h32V368z"/>
		</g>
	</g>
</g>
<g>
</g>
<g>
</g>
<g>
</g>
<g>
</g>
<g>
</g>
<g>
</g>
<g>
</g>
<g>
</g>
<g>
</g>
<g>
</g>
<g>
</g>
<g>
</g>
<g>
</g>
<g>
</g>
<g>
</g>
</svg>
