<svg version="1" xmlns="http://www.w3.org/2000/svg" width="933.333" height="933.333" viewBox="0 0 700.000000 700.000000"><path d="M329.8.4c-.1.2-4.7.7-10 1-5.3.4-10.5.8-11.5 1-1 .2-4 .7-6.8 1-4.7.6-13.5 2.1-18 3-14 2.9-19.6 4.3-29.4 7.1-11.7 3.4-27.1 8.6-32.6 11-1.6.7-4.6 1.9-6.5 2.6-7.1 2.8-37.8 18.4-45.5 23.2-32.1 19.9-55.5 39.2-79.8 65.9-39 42.7-69 101.1-81.2 157.8-1.4 6.5-4.4 23.5-5 28-.4 3-.9 6.3-1.1 7.2-1.1 6.2-1.9 23.4-1.8 42.3 0 22.3.6 32.1 2.9 47 .3 1.6.7 4.8 1 7 .5 3.4 1.2 7 3.9 21 2 10.1 12.7 44.8 16 52 .8 1.6 2.6 5.9 4.1 9.5 3.3 7.8 12 25.4 16.4 33 1.8 3 3.5 6.3 3.8 7.2.3 1 .9 1.8 1.4 1.8.5 0 .9.5.9 1 0 1.4 14.8 23.5 21.4 32 18.4 23.8 36.6 42.2 61.9 62.6 31.9 25.8 76.4 48.3 121.2 61.3 7 2 7.9 2.2 16.8 4.1 2.7.5 5.2 1.2 5.5 1.4.4.2 2.8.7 5.2 1.1 2.5.3 5.2.8 6 1 3.9 1 22.7 3.5 32 4.2 18.2 1.5 58.2.7 72-1.3 14.5-2.1 29.1-4.8 38-7 5.8-1.4 11.2-2.7 12-2.9.8-.1 8.4-2.6 16.9-5.4 98.9-33.1 176.9-106.6 215.2-203 3.9-9.8 10.9-30.1 10.4-30.1-.2 0 .3-1.9 1.1-4.2 1.4-4.1 6.7-26.1 7.8-32.8 1.5-8.7 3.6-24.2 4.3-32 1.5-16.3.8-57.2-1.2-72-.4-3-1.4-10.4-2.1-14.5-6.4-41.8-23.8-88.1-47.3-126.5-7.5-12.3-22.7-33.5-30-42-12.8-14.8-22.4-24.6-34.9-35.7-13.2-11.7-16.8-14.7-27-22.1-44.8-32.3-97-54-150.9-62.7-1.8-.3-4.5-.7-6-.9C388 1.7 373.2.7 353.3.5 340.6.3 330 .3 329.8.4zm48.7 70.9c1.1.2 4.3.8 7 1.1 2.8.4 6.6 1 8.5 1.2 7.3 1.1 22.8 4.5 31.5 7 5 1.4 9.7 2.8 10.5 3 5.2 1.2 25.5 9.5 36.8 15 54.1 26.3 98.1 69.4 125.9 123.4 6.7 12.9 8.1 16 12.5 27.5 7.1 18.7 13.1 40.7 15.3 56.5.2 1.4.9 6.5 1.6 11.5 2 14.2 1.6 63.2-.6 69.8-.2.7-.6 3-.9 5.2-3.5 26.2-14.8 60.8-28.6 87.2-15 28.6-35.3 55.1-59.1 76.8-18.3 16.7-37.8 30.2-61 42.3-18.9 9.9-49.2 20.9-67.4 24.6-1.6.4-4.1.9-5.5 1.1-5.4 1.1-22 3.5-30.5 4.4-8.9.9-47.2.7-53-.3-1.6-.3-7.9-1.2-14-2.1-106.1-15.6-195.4-93.6-225.9-197.3-1.5-4.9-2.8-9.7-3.1-10.8-.2-1-1-4.8-1.9-8.4-.8-3.6-1.7-7.9-2-9.5-.2-1.7-.7-4.8-1.1-7-.3-2.2-.8-5.1-1.1-6.5-1.9-11.7-2.6-49.4-1.1-63.4.9-8.7 2.6-20.6 3.2-22.6.2-.8.6-3.2.9-5.2 2.6-17.2 14.8-52.6 24.9-72.3 6.8-13.2 17.4-30.6 19-31.3.4-.2.7-.8.7-1.3 0-1 11.1-15.9 16.8-22.4 11.7-13.5 29-30.1 39.7-38 2.2-1.7 4.7-3.6 5.5-4.4 3.5-3.4 27.5-18.4 39-24.3 18.6-9.7 44.6-19.7 60.4-23.3 10.3-2.3 21.3-4.5 25.3-5.1 2.6-.3 5.7-.8 6.8-1 1.1-.2 5.8-.7 10.5-1 4.7-.4 8.7-.8 8.9-1 .6-.5 43 .3 45.6.9z"/><path d="M344 260.2c-11.1 1.9-12.3 3-68.2 58.9-33.7 33.7-53.5 54.3-55 57-7.8 14.8-5.1 31.8 6.8 42.8 12.3 11.3 31.1 12.4 44.1 2.5 2-1.5 20.4-19.5 41-40.1L350 344l39 39c43.5 43.4 43.2 43.2 58.4 45.4 3.5.5 11.4-1.2 16.8-3.7 6-2.8 14-10.8 16.4-16.6 4.4-10.4 3.9-22.3-1.2-31.5-2.8-5-102-105.1-109.6-110.6-6.9-5-17.2-7.4-25.8-5.8z"/></svg>