<?xml version="1.0" standalone="no"?>
<!DOCTYPE svg PUBLIC "-//W3C//DTD SVG 20010904//EN"
 "http://www.w3.org/TR/2001/REC-SVG-20010904/DTD/svg10.dtd">
<svg version="1.0" xmlns="http://www.w3.org/2000/svg"
 width="700.000000pt" height="700.000000pt" viewBox="0 0 700.000000 700.000000"
 preserveAspectRatio="xMidYMid meet">
<metadata>
Created by potrace 1.11, written by Peter Selinger 2001-2013
</metadata>
<g transform="translate(0.000000,700.000000) scale(0.100000,-0.100000)"
fill="#000000" stroke="none">
<path d="M3298 6996 c-1 -2 -47 -7 -100 -10 -53 -4 -105 -8 -115 -10 -10 -2
-40 -7 -68 -10 -47 -6 -135 -21 -180 -30 -140 -29 -196 -43 -294 -71 -117 -34
-271 -86 -326 -110 -16 -7 -46 -19 -65 -26 -71 -28 -378 -184 -455 -232 -321
-199 -555 -392 -798 -659 -390 -427 -690 -1011 -812 -1578 -14 -65 -44 -235
-50 -280 -4 -30 -9 -63 -11 -72 -11 -62 -19 -234 -18 -423 0 -223 6 -321 29
-470 3 -16 7 -48 10 -70 5 -34 12 -70 39 -210 20 -101 127 -448 160 -520 8
-16 26 -59 41 -95 33 -78 120 -254 164 -330 18 -30 35 -63 38 -72 3 -10 9 -18
14 -18 5 0 9 -5 9 -10 0 -14 148 -235 214 -320 184 -238 366 -422 619 -626
319 -258 764 -483 1212 -613 70 -20 79 -22 168 -41 27 -5 52 -12 55 -14 4 -2
28 -7 52 -11 25 -3 52 -8 60 -10 39 -10 227 -35 320 -42 182 -15 582 -7 720
13 145 21 291 48 380 70 58 14 112 27 120 29 8 1 84 26 169 54 989 331 1769
1066 2152 2030 39 98 109 301 104 301 -2 0 3 19 11 42 14 41 67 261 78 328 15
87 36 242 43 320 15 163 8 572 -12 720 -4 30 -14 104 -21 145 -64 418 -238
881 -473 1265 -75 123 -227 335 -300 420 -128 148 -224 246 -349 357 -132 117
-168 147 -270 221 -448 323 -970 540 -1509 627 -18 3 -45 7 -60 9 -113 19
-261 29 -460 31 -127 2 -233 2 -235 1z m487 -709 c11 -2 43 -8 70 -11 28 -4
66 -10 85 -12 73 -11 228 -45 315 -70 50 -14 97 -28 105 -30 52 -12 255 -95
368 -150 541 -263 981 -694 1259 -1234 67 -129 81 -160 125 -275 71 -187 131
-407 153 -565 2 -14 9 -65 16 -115 20 -142 16 -632 -6 -698 -2 -7 -6 -30 -9
-52 -35 -262 -148 -608 -286 -872 -150 -286 -353 -551 -591 -768 -183 -167
-378 -302 -610 -423 -189 -99 -492 -209 -674 -246 -16 -4 -41 -9 -55 -11 -54
-11 -220 -35 -305 -44 -89 -9 -472 -7 -530 3 -16 3 -79 12 -140 21 -1061 156
-1954 936 -2259 1973 -15 49 -28 97 -31 108 -2 10 -10 48 -19 84 -8 36 -17 79
-20 95 -2 17 -7 48 -11 70 -3 22 -8 51 -11 65 -19 117 -26 494 -11 634 9 87
26 206 32 226 2 8 6 32 9 52 26 172 148 526 249 723 68 132 174 306 190 313 4
2 7 8 7 13 0 10 111 159 168 224 117 135 290 301 397 380 22 17 47 36 55 44
35 34 275 184 390 243 186 97 446 197 604 233 103 23 213 45 253 51 26 3 57 8
68 10 11 2 58 7 105 10 47 4 87 8 89 10 6 5 430 -3 456 -9z"/>
<path d="M3440 4398 c-111 -19 -123 -30 -682 -589 -337 -337 -535 -543 -550
-570 -78 -148 -51 -318 68 -428 123 -113 311 -124 441 -25 20 15 204 195 410
401 l373 373 390 -390 c435 -434 432 -432 584 -454 35 -5 114 12 168 37 60 28
140 108 164 166 44 104 39 223 -12 315 -28 50 -1020 1051 -1096 1106 -69 50
-172 74 -258 58z"/>
</g>
</svg>
